P3
3 3
255

0 0 20  0 0 40  0 0 60
0 0 80  0 0 100 0 0 120
0 0 140 0 0 160 0 0 180